<?xml version="1.0" encoding="UTF-8"?>
<svg version="1.1" xmlns="http://www.w3.org/2000/svg" width="25" height="25">
<path d="M0 0 C8.25 0 16.5 0 25 0 C25 8.25 25 16.5 25 25 C16.75 25 8.5 25 0 25 C0 16.75 0 8.5 0 0 Z " fill="#B1B1B1" transform="translate(0,0)"/>
<path d="M0 0 C8.25 0 16.5 0 25 0 C25 8.25 25 16.5 25 25 C16.75 25 8.5 25 0 25 C0 16.75 0 8.5 0 0 Z M3 3 C3 9.6 3 16.2 3 23 C9.6 23 16.2 23 23 23 C23 16.4 23 9.8 23 3 C16.4 3 9.8 3 3 3 Z " fill="#B73131" transform="translate(0,0)"/>
<path d="M0 0 C3.3 0 6.6 0 10 0 C10 0.66 10 1.32 10 2 C8.02 2 6.04 2 4 2 C4 3.32 4 4.64 4 6 C5.98 6 7.96 6 10 6 C10 6.66 10 7.32 10 8 C8.02 8 6.04 8 4 8 C4 9.32 4 10.64 4 12 C5.98 12 7.96 12 10 12 C10 12.66 10 13.32 10 14 C6.7 14 3.4 14 0 14 C0 9.38 0 4.76 0 0 Z " fill="#860F0D" transform="translate(7,5)"/>
</svg>
